<svg width="468" height="425" viewBox="0 0 468 425" fill="none" xmlns="http://www.w3.org/2000/svg">
<path d="M139.404 182.127L86.235 411.322C86.2251 411.371 86.2036 411.416 86.1722 411.454C86.1408 411.492 86.1006 411.522 86.055 411.541C86.0095 411.559 85.96 411.567 85.9109 411.562C85.8619 411.557 85.8148 411.54 85.7737 411.513C26.5175 372.371 -17.516 273.119 8.0457 174.791C32.2636 81.541 115.126 6.056 223.309 0.525856C326.188 -4.7333 421.445 60.7453 454.237 156.093C486.488 249.934 456.102 360.116 382.035 412.978C381.993 413.008 381.945 413.026 381.895 413.033C381.845 413.039 381.794 413.033 381.746 413.016C381.699 412.998 381.656 412.969 381.623 412.931C381.589 412.893 381.565 412.847 381.553 412.798C373.029 375 364.756 337.985 356.302 301.011C347.277 261.336 337.951 221.722 328.775 182.037C328.755 181.977 328.717 181.924 328.666 181.887C328.615 181.85 328.553 181.83 328.489 181.83C328.426 181.83 328.364 181.85 328.313 181.887C328.262 181.924 328.223 181.977 328.204 182.037L234.33 423.999C234.309 424.055 234.27 424.104 234.22 424.139C234.17 424.173 234.11 424.192 234.05 424.192C233.989 424.192 233.929 424.173 233.879 424.139C233.829 424.104 233.791 424.055 233.769 423.999C201.819 341.428 171.063 261.778 140.176 182.067L139.404 182.127ZM238.251 356.553C267.473 276.311 296.705 195.446 325.927 115.164C328.163 111.36 333.95 112.153 335.273 115.756C355.049 201.368 374.844 287.03 395.121 374.789C395.134 374.843 395.16 374.893 395.199 374.933C395.237 374.973 395.285 375.002 395.338 375.018C395.391 375.033 395.447 375.034 395.501 375.02C395.554 375.007 395.603 374.979 395.643 374.94C465.84 301.111 474.915 162.606 378.886 73.6824C291.4 -7.35284 148.389 1.62988 68.6757 95.3413C-8.21993 185.741 9.84073 312.964 72.7873 373.866C72.8254 373.905 72.8737 373.934 72.9268 373.948C72.9799 373.962 73.0358 373.961 73.0885 373.946C73.1412 373.93 73.1886 373.9 73.2257 373.86C73.2627 373.819 73.288 373.769 73.2987 373.715L132.585 116.699C132.829 115.64 133.406 114.688 134.23 113.981C135.054 113.273 136.083 112.849 137.166 112.769C138.249 112.69 139.329 112.959 140.247 113.538C141.166 114.117 141.876 114.975 142.272 115.986C173.129 195.727 199.041 277.425 231.232 356.643C231.309 357.529 231.718 358.352 232.377 358.949C233.036 359.545 233.895 359.87 234.783 359.859C235.671 359.847 236.523 359.5 237.166 358.887C237.809 358.274 238.197 357.44 238.251 356.553Z" fill="#E60000"/>
<path d="M233.769 326.102C202.261 236.074 172.187 150.171 142.223 64.5695C142.198 64.5046 142.197 64.4332 142.219 64.3674C142.24 64.3016 142.284 64.2453 142.343 64.2082C196.084 30.4653 273.571 31.0273 325.757 64.2082C325.816 64.2434 325.86 64.2973 325.884 64.3611C325.908 64.4249 325.909 64.4948 325.888 64.5595L234.341 326.102C234.317 326.158 234.277 326.206 234.226 326.24C234.176 326.273 234.116 326.291 234.055 326.291C233.994 326.291 233.935 326.273 233.884 326.24C233.833 326.206 233.793 326.158 233.769 326.102Z" fill="#E60000"/>
</svg>
