<svg width="50" height="48" viewBox="0 0 50 48" fill="none" xmlns="http://www.w3.org/2000/svg">
<path fill-rule="evenodd" clip-rule="evenodd" d="M21.3686 2.07739C17.6182 5.83039 18.7034 9.63239 25.3908 16.1814C28.7025 19.4244 31.8863 22.0774 32.4659 22.0774C33.0455 22.0774 36.1823 19.4134 39.436 16.1574C44.0968 11.4934 45.3519 9.58339 45.3519 7.15739C45.3519 1.26839 37.8731 -2.29661 33.8879 1.69239C32.4019 3.17939 32.1321 3.17939 30.4893 1.69239C28.0499 -0.516609 23.7809 -0.336609 21.3686 2.07739ZM39.3901 30.5414C34.2966 35.7034 33.6091 36.0774 29.2061 36.0774C22.9335 36.0774 22.2869 34.5874 27.942 33.1624C31.8043 32.1884 32.4439 31.6804 32.1771 29.7964C31.8783 27.6994 31.3207 27.5614 22.0681 27.2904L12.2759 27.0034L6.57886 32.5044L0.882812 38.0044L5.59754 42.7454L10.3123 47.4864L12.6566 45.2824C14.7602 43.3044 16.0593 43.0774 25.2779 43.0774H35.5527L42.4939 36.3724C47.3386 31.6914 49.3462 29.0494 49.1423 27.6224C48.5817 23.7034 45.1121 24.7424 39.3901 30.5414Z" fill="white"/>
</svg>
