<svg width="43" height="49" viewBox="0 0 43 49" fill="none" xmlns="http://www.w3.org/2000/svg">
<path fill-rule="evenodd" clip-rule="evenodd" d="M17.6353 0.822475C16.0542 1.91261 3.60641 18.7683 1.55718 22.5939C0.608802 24.3652 0.222247 28.6346 0.50436 34.2256C1.17303 47.4631 2.42633 48.3661 20.8357 48.8782C36.9918 49.3267 39.921 48.8782 40.5561 41.5183C43.6315 36.5776 42.1563 27.5277 40.9702 26.795C40.3928 26.4388 39.921 25.1388 39.921 23.9047C39.921 19.519 36.6521 17.894 27.831 17.894C23.2559 17.894 19.5128 17.6829 19.5128 17.4251C19.5128 17.1673 20.5812 14.6044 21.8874 11.7286C24.7781 5.36409 24.8418 4.2008 22.4288 1.78908C20.3315 -0.304833 19.5104 -0.470332 17.6353 0.822475Z" fill="white"/>
</svg>
