<svg width="48" height="49" viewBox="0 0 48 49" fill="none" xmlns="http://www.w3.org/2000/svg">
<path d="M44.1798 32.2703C41.221 32.2703 38.3229 31.8079 35.5761 30.9009C34.2356 30.4386 32.7133 30.7948 31.8322 31.6943L26.3867 35.8096C20.1385 32.4724 16.1395 28.4732 12.8501 22.266L16.8515 16.9456C17.8588 15.9376 18.2198 14.4622 17.7881 13.0803C16.8742 10.314 16.4097 7.41128 16.4097 4.45549C16.4097 2.36619 14.7107 0.666016 12.6229 0.666016H3.78685C1.69899 0.666016 0 2.36619 0 4.45549C0 28.8319 19.8204 48.666 44.1798 48.666C46.2677 48.666 47.9667 46.9658 47.9667 44.8765V36.0597C47.9667 33.9704 46.2677 32.2703 44.1798 32.2703Z" fill="#E50000"/>
</svg>
