<svg width="51" height="48" viewBox="0 0 51 48" fill="none" xmlns="http://www.w3.org/2000/svg">
<path fill-rule="evenodd" clip-rule="evenodd" d="M21.0347 2.12147C19.5867 3.26047 18.4016 4.85047 18.4016 5.65247C18.4016 7.81447 21.2256 8.50447 23.1852 6.82147C26.3491 4.10647 27.3134 3.96647 29.283 5.93747C31.7623 8.41847 30.9988 11.8675 27.6931 13.1255C26.359 13.6335 19.6747 14.0485 12.8404 14.0485C1.0806 14.0485 0.414062 14.1555 0.414062 16.0485C0.414062 17.9575 1.0806 18.0485 15.0989 18.0485C29.6747 18.0485 29.8057 18.0285 32.5867 15.3615C40.885 7.40547 30.0695 -4.99053 21.0347 2.12147ZM0.414062 23.9915C0.414062 25.8415 1.38639 25.9485 20.8739 26.2415C40.2734 26.5325 41.4456 26.6605 43.4832 28.7015C46.3012 31.5235 46.2622 35.9175 43.3982 38.2385C40.2314 40.8045 37.908 40.4925 34.6913 37.0715C32.6147 34.8635 31.5055 34.3415 30.3932 35.0465C29.0622 35.8915 29.0632 36.3085 30.4072 38.7735C32.6886 42.9565 38.0619 45.2535 42.6227 43.9935C47.6742 42.5975 50.3794 38.8735 50.3794 33.3135C50.3794 29.5685 49.8307 28.2995 46.9817 25.4485L46.0026 24.5195C44.3304 22.9329 42.1132 22.0485 39.8081 22.0485H21.9991C1.29245 22.0485 0.414062 22.1275 0.414062 23.9915ZM0.414062 31.0485C0.414062 32.8415 1.0806 33.0485 6.8446 33.0485C10.3811 33.0485 14.3674 33.4635 15.7014 33.9715C19.0151 35.2325 19.7696 38.6795 17.2774 41.1735C15.3107 43.1415 15.2897 43.1415 11.981 41.0955C9.09803 39.3115 8.49945 39.2335 7.44718 40.5025C5.51952 42.8275 10.3282 47.0485 14.904 47.0485C23.0633 47.0485 26.6189 36.9375 20.3232 31.6375C17.5482 29.3005 16.4289 29.0485 8.83122 29.0485C1.0806 29.0485 0.414062 29.2065 0.414062 31.0485Z" fill="white"/>
</svg>
