<svg width="47" height="40" viewBox="0 0 47 40" fill="none" xmlns="http://www.w3.org/2000/svg">
<path fill-rule="evenodd" clip-rule="evenodd" d="M3.3849 1.11162C2.35561 1.88362 1.47223 4.49962 1.0765 7.94862C-0.365496 20.5036 6.35084 31.6026 17.663 35.3626C24.4043 37.6036 32.2069 37.0256 36.4989 33.9676L39.6647 31.7116L40.2743 34.7636C41.0827 38.8086 43.1293 40.5316 45.1409 38.8616C47.1105 37.2256 47.0396 36.3186 44.5363 31.1436C42.0301 25.9626 37.9649 23.6116 28.7583 22.0176C25.2437 21.4086 21.5343 20.1546 20.514 19.2316C17.5171 16.5176 18.3765 15.9326 22.3677 17.9696C24.4942 19.0536 28.2266 19.8806 31.1116 19.9056C33.8817 19.9296 37.834 20.5516 39.8945 21.2876L43.6419 22.6256V19.6446C43.6419 15.2766 40.8549 10.1236 36.8317 7.05562C33.521 4.52962 32.6396 4.35862 22.6775 4.31862C13.364 4.28062 11.6711 4.00262 8.95603 2.06862C5.32255 -0.521378 5.51642 -0.487378 3.3849 1.11162Z" fill="white"/>
</svg>
