<svg width="60" height="55" viewBox="0 0 87 81" fill="none" xmlns="http://www.w3.org/2000/svg">
<path d="M26.3327 34.7441L16.5734 78.3503C16.5716 78.3595 16.5676 78.3681 16.5619 78.3754C16.5561 78.3826 16.5487 78.3883 16.5403 78.3918C16.532 78.3954 16.5229 78.3968 16.5139 78.3959C16.5049 78.395 16.4962 78.3918 16.4887 78.3866C5.61203 70.9394 -2.47046 52.056 2.22147 33.3482C6.66675 15.6067 21.8764 1.24507 41.7339 0.192919C60.6176 -0.80768 78.1023 11.6502 84.1214 29.7908C90.0411 47.645 84.4638 68.6079 70.8684 78.6654C70.8608 78.671 70.852 78.6745 70.8428 78.6758C70.8335 78.677 70.8242 78.6759 70.8155 78.6725C70.8067 78.6691 70.799 78.6635 70.7928 78.6563C70.7866 78.6491 70.7822 78.6404 70.7801 78.631C69.2155 71.4397 67.6969 64.3973 66.1452 57.3626C64.4885 49.8142 62.7767 42.2772 61.0925 34.7269C61.0888 34.7155 61.0818 34.7055 61.0724 34.6984C61.063 34.6913 61.0516 34.6875 61.04 34.6875C61.0284 34.6875 61.017 34.6913 61.0076 34.6984C60.9982 34.7055 60.9912 34.7155 60.9875 34.7269L43.7568 80.7621C43.7528 80.7729 43.7457 80.7822 43.7365 80.7887C43.7273 80.7953 43.7164 80.7988 43.7052 80.7988C43.6941 80.7988 43.6832 80.7953 43.674 80.7887C43.6648 80.7822 43.6577 80.7729 43.6537 80.7621C37.7892 65.0523 32.1438 49.8982 26.4745 34.7327L26.3327 34.7441ZM44.4765 67.93C49.8403 52.6632 55.2059 37.2781 60.5697 22.0037C60.9802 21.28 62.0423 21.4308 62.2852 22.1163C65.9151 38.4047 69.5486 54.7026 73.2705 71.3996C73.2728 71.4099 73.2777 71.4193 73.2847 71.4269C73.2917 71.4346 73.3005 71.4401 73.3103 71.4431C73.32 71.446 73.3304 71.4462 73.3402 71.4436C73.35 71.4409 73.359 71.4357 73.3662 71.4283C86.2511 57.3817 87.9169 31.0301 70.2904 14.1115C54.2322 -1.30607 27.982 0.402968 13.3503 18.2323C-0.764142 35.4315 2.55095 59.6369 14.105 71.2239C14.112 71.2315 14.1209 71.2368 14.1306 71.2395C14.1404 71.2422 14.1506 71.242 14.1603 71.2391C14.17 71.2361 14.1787 71.2305 14.1855 71.2228C14.1923 71.2151 14.1969 71.2056 14.1989 71.1953L25.0811 22.2958C25.1259 22.0944 25.2317 21.9131 25.3831 21.7786C25.5344 21.6441 25.7232 21.5633 25.922 21.5482C26.1207 21.533 26.3189 21.5843 26.4876 21.6944C26.6562 21.8045 26.7864 21.9678 26.8592 22.1602C32.523 37.3315 37.2794 52.8752 43.188 67.9472C43.2022 68.1157 43.2773 68.2724 43.3982 68.3858C43.5191 68.4993 43.6769 68.5611 43.8399 68.5589C44.003 68.5568 44.1592 68.4907 44.2772 68.3741C44.3953 68.2574 44.4665 68.0988 44.4765 67.93Z" fill="#E60000"/>
<path d="M43.6432 62.1356C37.8598 45.007 32.3395 28.6633 26.8395 12.3768C26.835 12.3645 26.8347 12.3509 26.8388 12.3384C26.8428 12.3259 26.8509 12.3152 26.8616 12.3081C36.7259 5.88822 50.949 5.99515 60.528 12.3081C60.5386 12.3148 60.5468 12.325 60.5512 12.3372C60.5555 12.3493 60.5558 12.3626 60.5519 12.3749L43.7482 62.1356C43.7438 62.1462 43.7365 62.1553 43.7271 62.1617C43.7178 62.1681 43.7069 62.1715 43.6957 62.1715C43.6845 62.1715 43.6736 62.1681 43.6643 62.1617C43.655 62.1553 43.6476 62.1462 43.6432 62.1356Z" fill="#E60000"/>
</svg>
