<svg width="68" height="59" viewBox="0 0 68 59" fill="none" xmlns="http://www.w3.org/2000/svg">
<path fill-rule="evenodd" clip-rule="evenodd" d="M53.2793 16.7332C48.923 20.4777 45.1483 32.4355 45.1329 42.5394C45.1233 48.6644 45.7714 51.3881 47.7329 53.4692C49.6969 55.5531 52.5007 56.2937 57.4491 56.0358C62.305 55.7822 64.3331 54.6756 65.9077 51.4209C68.6643 45.7226 67.0757 31.2156 62.6943 22.0785C59.8838 16.2182 56.2671 14.1647 53.2793 16.7332ZM61.0547 24.2256C65.5593 35.0166 65.9954 46.1315 62.1691 52.6644C61.4936 53.8183 60.8692 54.691 60.7819 54.6032C60.6942 54.516 60.9303 53.258 61.3062 51.8086C62.8052 46.0255 61.9904 36.8835 58.8748 24.5308C57.941 20.8292 57.1826 17.5838 57.1894 17.3186C57.2106 16.4434 59.5542 20.6306 61.0547 24.2256ZM49.4323 33.7263C48.5785 40.1497 48.9924 46.1349 50.5208 49.4571C51.2108 50.9561 52.4472 52.7821 53.2687 53.515C55.0438 55.097 54.9137 55.5213 52.9637 54.5121C50.6625 53.3216 48.1323 50.1306 47.3204 47.3953C46.4599 44.4951 46.3418 38.9463 47.081 36.1232C47.7618 33.5214 49.5388 29.0478 49.7908 29.3005C49.9026 29.4123 49.7412 31.4042 49.4323 33.7263ZM59.044 35.4394C59.7248 39.468 59.7248 43.7974 59.0435 48.9445C58.0576 56.394 57.6852 54.6327 57.7902 43.023C57.8471 36.7408 58.0316 31.7504 58.2008 31.9331C58.3694 32.1163 58.7486 33.694 59.044 35.4394Z" fill="black"/>
<path fill-rule="evenodd" clip-rule="evenodd" d="M39.4465 35.2939C36.8747 35.767 32.6738 39.5958 30.3804 43.5567C28.99 45.9578 28.6299 47.1747 28.9351 48.4398C29.2407 49.7065 30.1827 50.6382 32.1996 51.6685C34.1789 52.6794 35.2321 52.7089 36.5921 51.792C38.973 50.1865 41.6284 44.1311 41.9628 39.5441C42.177 36.602 41.2105 34.9693 39.4465 35.2939ZM40.8277 40.0116C40.1678 45.2757 37.8242 49.7366 34.8309 51.425C34.3023 51.7233 33.8576 51.9229 33.843 51.8686C33.828 51.8143 34.2062 51.3747 34.6831 50.8919C36.5855 48.9655 38.3326 45.1922 39.8959 39.6329C40.3643 37.967 40.7988 36.5201 40.8615 36.4176C41.0681 36.0791 41.0477 38.2579 40.8277 40.0116ZM34.0771 41.0818C32.285 43.407 31.0939 45.85 30.9468 47.503C30.8805 48.249 30.9565 49.2481 31.1157 49.7236C31.4601 50.7502 31.3126 50.8869 30.7693 50.0451C30.128 49.0517 29.849 47.2211 30.1469 45.9622C30.4628 44.6275 31.6723 42.4233 32.6039 41.4846C33.4623 40.6194 35.1784 39.2705 35.2209 39.4272C35.2398 39.4967 34.725 40.2413 34.0771 41.0818ZM37.4934 43.9518C36.8509 45.6882 35.8708 47.3869 34.4359 49.2507C32.3594 51.9483 32.6107 51.172 35.2804 46.6407C36.7251 44.1888 37.9278 42.2729 37.9534 42.3832C37.9787 42.4937 37.7716 43.1994 37.4934 43.9518Z" fill="black"/>
<path fill-rule="evenodd" clip-rule="evenodd" d="M38.3965 7.02307C32.871 6.57983 22.1699 12.1132 15.3023 18.9645C11.1389 23.1175 9.73429 25.4116 9.6657 28.1696C9.59679 30.9312 11.0149 33.3562 14.5798 36.5732C18.0784 39.7297 20.2187 40.3684 23.5061 39.2375C29.2617 37.2573 38.0188 26.3161 41.2184 17.1074C43.2703 11.2008 42.1864 7.32691 38.3965 7.02307ZM38.638 17.4415C34.4005 27.858 27.1559 35.7055 20.1012 37.5192C18.8554 37.8398 17.8353 38.0044 17.8351 37.885C17.8343 37.7656 18.8497 37.0731 20.0908 36.3464C25.0425 33.4465 30.6886 26.6794 36.9377 16.1545C38.8101 13.0005 40.4932 10.2765 40.6778 10.101C41.2862 9.52121 40.05 13.9714 38.638 17.4415ZM24.2286 15.9265C19.2844 19.7036 15.506 24.052 14.2984 27.3559C13.7537 28.847 13.3614 30.9346 13.4268 31.9955C13.5692 34.2867 13.1921 34.4857 12.5412 32.4636C11.7727 30.0776 12.2051 26.1761 13.5053 23.7619C14.884 21.2023 18.5689 17.353 20.9912 15.9424C23.2233 14.6422 27.4767 12.8222 27.4778 13.1665C27.4785 13.3191 26.0161 14.5612 24.2286 15.9265ZM29.6503 23.6788C27.3827 26.8814 24.4445 29.8217 20.4846 32.8502C14.7535 37.2336 15.6938 35.7821 23.6448 27.9696C27.9472 23.7422 31.4604 20.4795 31.4523 20.7195C31.4434 20.9596 30.6325 22.291 29.6503 23.6788Z" fill="black"/>
<path fill-rule="evenodd" clip-rule="evenodd" d="M3.27258 43.3475C3.88094 46.6589 8.804 52.068 13.897 55.021C16.9843 56.8113 18.5491 57.2749 20.1757 56.8819C21.8045 56.4885 23.0025 55.2755 24.3273 52.6786C25.6271 50.13 25.6651 48.774 24.486 47.0229C22.4217 43.9571 14.6356 40.5381 8.73757 40.1076C4.95462 39.8317 2.85521 41.0762 3.27258 43.3475ZM9.33872 41.569C16.1074 42.4188 21.8432 45.4364 24.0142 49.2905C24.3977 49.9711 24.6544 50.5437 24.5845 50.5626C24.5147 50.5818 23.9494 50.0948 23.3287 49.4808C20.8517 47.0313 15.9999 44.7817 8.8518 42.7688C6.70973 42.1657 4.84935 41.6062 4.71754 41.5255C4.28225 41.2596 7.08381 41.2857 9.33872 41.569ZM10.7148 50.2611C13.7045 52.5686 16.8458 54.1022 18.9712 54.2917C19.9304 54.377 21.2151 54.2792 21.8264 54.0742C23.1465 53.6307 23.3223 53.8207 22.2398 54.5203C20.9626 55.346 18.6088 55.7052 16.9901 55.3217C15.2738 54.9148 12.4397 53.3576 11.2327 52.158C10.1202 51.0527 8.38572 48.8432 8.58728 48.7884C8.67659 48.764 9.63404 49.4269 10.7148 50.2611ZM14.4051 45.8623C16.6377 46.6896 18.822 47.9516 21.2185 49.7991C24.687 52.4729 23.6888 52.1493 17.8625 48.7117C14.7097 46.8516 12.2462 45.3029 12.3882 45.27C12.5302 45.2375 13.4376 45.5041 14.4051 45.8623Z" fill="black"/>
</svg>
