<svg width="118" height="63" viewBox="0 0 118 63" fill="none" xmlns="http://www.w3.org/2000/svg">
<g clip-path="url(#clip0_247_509)">
<path d="M47.2308 42.9848C47.4843 42.2743 47.7305 41.5535 47.9873 40.8399C48.6325 39.056 49.2798 37.2743 49.9292 35.4948L50.269 34.8653L52.7458 30.6082C51.7845 31.4245 51.3532 30.8254 51.0893 30.1517C50.9005 29.6514 50.8241 29.1156 50.8656 28.5822C51.0512 26.2586 52.0605 24.2827 53.6305 22.4317C55.174 24.5253 54.6489 26.6455 54.0878 28.8273L56.7951 25.6105C55.9831 25.411 55.7658 24.6618 55.9869 24.0246C56.4417 22.5991 57.037 21.2219 57.7639 19.913C58.3029 18.9819 59.1993 18.2573 60.073 17.2866C60.7672 19.7341 59.9081 21.6344 59.0435 23.6269C59.7987 22.8972 60.5627 22.1753 61.3004 21.4299C61.4132 21.3151 61.4189 21.0856 61.4572 20.9073C61.6505 20.0488 61.6576 19.0936 62.059 18.3482C63.247 16.155 65.0186 14.4993 67.3277 13.2371C67.3064 15.4829 66.1724 17.1007 65.11 18.8209C65.872 18.3337 66.6382 17.8536 67.3928 17.356C67.5365 17.2718 67.6457 17.1396 67.7013 16.9829C68.2561 14.0018 70.6099 12.6099 72.8796 11.1574C73.4525 10.7916 74.1073 10.5545 74.9186 10.1659C74.3139 12.2199 73.127 13.6031 71.929 15.0677C73.4011 14.4824 74.8769 13.9023 76.3467 13.3029C76.4956 13.2295 76.6184 13.1123 76.6984 12.9671C78.3444 10.0617 81.1829 9.10491 84.379 8.26589C83.4046 9.99704 82.0247 10.9862 80.6751 12.0463C82.1055 11.6698 83.5912 11.8521 84.8587 10.5179C86.4566 8.83333 88.7087 8.29502 91.0171 8.21589L91.208 8.50721L87.4245 11.1461C88.3201 11.0943 89.2238 11.0758 90.1195 10.9692C90.4293 10.8958 90.7118 10.7358 90.9339 10.508C92.6953 8.92927 94.7831 8.46887 97.0359 8.54601L97.1865 8.86447L93.2573 11.0632C94.6839 10.9705 95.8957 11.4667 97.1946 10.572C98.4934 9.67723 100.148 9.50168 101.844 10.2454L98.6236 11.5896C99.5758 11.7566 100.262 12.2479 101.225 11.5407C102.442 10.6435 103.919 10.6725 105.344 11.0632L105.435 11.4084L101.551 12.6023C102.663 13.6205 102.938 14.5879 102.647 15.7127C100.015 15.7794 98.4808 14.2523 99.0467 11.9551L95.7439 11.4543C97.091 12.3981 98.1272 13.4037 98.0705 15.2513C96.1999 15.3582 94.4824 15.0891 93.1248 13.7458C92.2913 12.9183 92.4893 11.8959 93.7176 11.3708L88.5437 11.3819C90.3184 12.1268 91.9809 12.8787 92.629 15.0452C91.0516 15.4183 89.5141 15.5493 87.9716 15.1611C87.2326 14.9459 86.5188 14.6529 85.8422 14.287C85.1527 13.9423 84.699 13.3185 84.9235 12.5685C85.044 12.1688 85.6163 11.9043 86.0405 11.5293C84.2297 11.8308 82.368 12.0151 80.5694 12.4667C76.5645 13.4679 72.6573 14.8017 69.0595 16.8606C66.8268 18.1019 64.6778 19.4879 62.6264 21.0097C60.6944 22.4806 58.9254 24.1861 57.2108 25.9107C54.4007 28.7375 52.3031 32.0874 50.5148 35.6247C48.1173 40.3677 47.3319 45.4776 47.4426 50.6957C47.5343 54.9287 46.6178 58.7505 43.9139 62.0611C43.6078 62.442 42.7968 62.9759 42.6841 62.8777C41.9555 62.2815 42.7286 61.8583 43.0328 61.4021C43.7797 60.287 44.5965 59.2137 45.3062 58.0741C46.5506 56.0786 46.5905 53.8314 46.6769 51.5636C46.7759 48.8891 47.0864 46.2214 47.2986 43.5501C47.2974 43.3505 47.2801 43.1513 47.2469 42.9546L47.2308 42.9848Z" fill="#F2AD12"/>
<path d="M80.1626 17.7113C77.3909 19.1199 74.5639 19.8729 71.5439 19.4117C70.7804 19.2942 70.068 18.7373 69.394 18.2845C69.2607 18.1948 69.3115 17.4855 69.5003 17.322C72.0142 15.1767 77.8623 15.1713 80.1626 17.7113Z" fill="#F2AD12"/>
<path d="M73.3387 21.0468C70.9803 22.4653 68.5344 23.3437 65.8412 23.3956C64.5793 23.4187 63.3455 23.2919 62.6519 22.0038C64.475 19.3856 71.1668 18.7941 73.3387 21.0468Z" fill="#F2AD12"/>
<path d="M57.0605 41.8754C56.1842 44.8288 50.3761 49.2159 47.9699 47.8808C47.9186 45.4402 52.8089 41.9973 57.0605 41.8754Z" fill="#F2AD12"/>
<path d="M86.4978 15.8755C84.0686 16.6981 81.6739 16.9787 79.2351 16.2335C78.3443 15.9633 77.5219 15.5646 77.3071 14.5342C77.2632 14.3221 77.319 13.9528 77.466 13.8528C80.1417 12.0352 85.2588 13.0241 86.4978 15.8755Z" fill="#F2AD12"/>
<path d="M53.3592 31.8118C55.1154 29.0244 59.9627 27.5703 63.5722 28.7464C61.9047 31.5888 55.2914 33.5731 53.3592 31.8118Z" fill="#F2AD12"/>
<path d="M57.3484 26.663C59.1779 24.0934 65.2008 23.1761 67.6279 25.013C64.6717 27.7981 58.8511 28.7544 57.3484 26.663Z" fill="#F2AD12"/>
<path d="M48.8701 42.4053C49.3064 39.741 55.1098 36.8819 58.4162 37.5945C56.8509 40.7766 51.2529 43.6295 48.8701 42.4053Z" fill="#F2AD12"/>
<path d="M50.5645 37.164C51.6061 34.1977 58.0417 32.1859 60.5138 33.2119C58.2832 36.4108 52.7165 38.649 50.5645 37.164Z" fill="#F2AD12"/>
<path d="M50.2651 34.8653L49.9253 35.4947L49.1047 36.4385C47.9856 36.1964 47.3603 35.4545 47.1113 34.285C46.6501 32.1348 47.1806 30.1838 48.2136 28.2301C49.2522 28.7543 49.8442 29.6012 50.2147 30.6154C50.7155 32.0196 50.6047 33.4431 50.2651 34.8653Z" fill="#F2AD12"/>
<path d="M47.2381 42.959C47.1372 42.6503 46.9599 42.3722 46.7225 42.1503C46.4851 41.9284 46.1953 41.77 45.8799 41.6897C45.4125 41.506 45.0297 41.1568 44.8047 40.7087C43.7259 38.6135 43.8096 36.4814 44.7062 34.3314C47.3229 35.2771 48.6866 38.6173 47.4453 41.1052C47.1204 41.7554 46.9715 42.3177 47.2292 42.9849L47.2381 42.959Z" fill="#F2AD12"/>
<path d="M45.9363 47.8429C44.4933 48.0271 43.3553 47.4407 42.5701 46.1366C41.661 44.6217 41.4682 43.0153 41.7625 41.2318C43.4228 41.4594 44.5987 42.2934 45.5219 43.6268C46.4902 45.0244 46.4033 46.4912 45.9363 47.8429Z" fill="#F2AD12"/>
<path d="M110.062 15.1367C108.295 15.4692 106.638 15.4852 105.031 14.813C104.694 14.6721 104.3 14.5337 104.081 14.2723C103.804 13.961 103.64 13.5663 103.614 13.1508C103.618 12.9513 104.117 12.6692 104.435 12.582C106.712 11.9665 109.23 13.086 110.062 15.1367Z" fill="#F2AD12"/>
</g>
<g clip-path="url(#clip1_247_509)">
<path d="M41.4259 50.9622C41.3353 50.5309 41.2498 50.0943 41.1576 49.6609C40.925 48.5773 40.6911 47.4948 40.4558 46.4134L40.3086 46.0217L39.2089 43.3572C39.7025 43.9089 40.0011 43.5993 40.2084 43.2327C40.3581 42.9598 40.4453 42.657 40.4639 42.3457C40.5417 40.9892 40.1128 39.7643 39.348 38.5644C38.2834 39.6431 38.4192 40.9107 38.5711 42.2169L37.2543 40.1334C37.7423 40.0864 37.9285 39.6723 37.8509 39.286C37.7004 38.4252 37.4644 37.5805 37.1464 36.7642C36.9074 36.1816 36.4442 35.6883 36.0139 35.0548C35.4148 36.409 35.7623 37.5777 36.1057 38.8001C35.725 38.3156 35.3386 37.835 34.9693 37.3429C34.9129 37.2672 34.9279 37.1343 34.9199 37.0282C34.8761 36.5165 34.9483 35.9647 34.7745 35.5008C34.2592 34.1355 33.3616 33.0314 32.1201 32.1094C31.953 33.4071 32.4829 34.4359 32.9631 35.5177C32.559 35.1727 32.1519 34.8313 31.7531 34.4809C31.6763 34.4202 31.6233 34.3347 31.6036 34.2397C31.5193 32.4728 30.2621 31.4721 29.0587 30.4435C28.7549 30.1843 28.3932 29.9925 27.9526 29.7003C28.14 30.9363 28.7195 31.8341 29.2988 32.7798C28.4898 32.3185 27.6783 31.86 26.8717 31.3908C26.791 31.3359 26.729 31.258 26.6941 31.1675C25.9694 29.3528 24.3957 28.5625 22.6047 27.8102C23.0329 28.891 23.756 29.5776 24.4559 30.3025C23.6544 29.9653 22.7762 29.9458 22.1459 29.0695C21.3516 27.9634 20.0854 27.4638 18.7497 27.2245L18.6155 27.3766L20.6041 29.2169C20.0876 29.1118 19.5637 29.0254 19.0515 28.8887C18.8773 28.8203 18.7259 28.7043 18.6149 28.5543C17.7171 27.4954 16.5402 27.0546 15.2244 26.9101L15.1114 27.0813L17.2199 28.6797C16.398 28.5066 15.6538 28.6913 14.9702 28.066C14.2867 27.4407 13.3386 27.2006 12.2932 27.4875L14.0581 28.5334C13.4912 28.5499 13.0533 28.7759 12.5499 28.287C11.9137 27.6671 11.053 27.5599 10.1934 27.6659L10.1129 27.8574L12.2756 28.8723C11.5479 29.3666 11.3102 29.9017 11.3897 30.5752C12.9142 30.8345 13.9284 30.0819 13.783 28.7088L15.7431 28.6969C14.8845 29.1285 14.2018 29.6219 14.0871 30.6929C15.166 30.9115 16.1859 30.9003 17.0825 30.239C17.6332 29.8313 17.5998 29.2247 16.9277 28.8187L19.9346 29.2591C18.8434 29.5401 17.8168 29.8345 17.2669 31.0304C18.1541 31.378 19.0374 31.5826 19.9652 31.488C20.412 31.4258 20.8504 31.3166 21.2729 31.1622C21.7013 31.0211 22.0149 30.6991 21.9444 30.2475C21.9062 30.0067 21.5947 29.8061 21.378 29.5541C22.4067 29.88 23.4742 30.1425 24.4837 30.554C26.7319 31.4677 28.8967 32.5652 30.8237 34.0551C32.0225 34.9588 33.161 35.9389 34.232 36.9892C35.2376 38.0001 36.1297 39.1327 36.9886 40.2718C38.3963 42.1388 39.348 44.2479 40.105 46.4393C41.1197 49.3775 41.168 52.3922 40.6866 55.3943C40.295 57.8294 40.5224 60.1118 41.8297 62.2491C41.9772 62.4946 42.406 62.8707 42.4794 62.8235C42.9506 62.5405 42.535 62.2315 42.3946 61.9427C42.0495 61.2366 41.6605 60.5486 41.3389 59.8315C40.775 58.5755 40.9314 57.2753 41.0624 55.9593C41.2185 54.4076 41.2512 52.8421 41.3414 51.2827C41.358 51.1676 41.384 51.0541 41.419 50.9434L41.4259 50.9622Z" fill="#F2AD12"/>
<path d="M24.3001 33.6145C25.7989 34.6599 27.3822 35.3315 29.1746 35.3187C29.6279 35.315 30.0865 35.0533 30.5146 34.8486C30.5992 34.808 30.6263 34.3944 30.5296 34.2842C29.2397 32.8353 25.8403 32.3416 24.3001 33.6145Z" fill="#F2AD12"/>
<path d="M28.003 36.1107C29.2606 37.1271 30.6123 37.8392 32.1739 38.095C32.9056 38.2142 33.633 38.2446 34.1391 37.5594C33.2885 35.8956 29.4456 34.9929 28.003 36.1107Z" fill="#F2AD12"/>
<path d="M35.8026 49.496C36.076 51.2739 39.1019 54.2928 40.6075 53.7242C40.8323 52.32 38.2645 49.9229 35.8026 49.496Z" fill="#F2AD12"/>
<path d="M20.7675 32.0233C22.114 32.7018 23.4836 33.0646 24.961 32.8391C25.5004 32.7579 26.0104 32.5968 26.2176 32.0202C26.2601 31.9015 26.2571 31.6837 26.1797 31.6137C24.7694 30.3403 21.7157 30.4817 20.7675 32.0233Z" fill="#F2AD12"/>
<path d="M38.7546 43.9993C37.9564 42.2433 35.2547 40.9976 33.0624 41.3736C33.8046 43.1537 37.4906 44.8536 38.7546 43.9993Z" fill="#F2AD12"/>
<path d="M36.8505 40.693C35.9923 39.0567 32.5642 38.0221 31.0065 38.8785C32.5024 40.7338 35.8098 41.7739 36.8505 40.693Z" fill="#F2AD12"/>
<path d="M40.5203 50.4891C40.4795 48.9149 37.3343 46.7782 35.3551 46.9121C36.0109 48.8797 39.0372 50.9957 40.5203 50.4891Z" fill="#F2AD12"/>
<path d="M39.9566 47.3234C39.5882 45.5243 36.0076 43.8234 34.4885 44.2081C35.5296 46.2413 38.5869 47.9999 39.9566 47.3234Z" fill="#F2AD12"/>
<path d="M40.1843 46.0626L40.3114 46.4008L40.6581 46.9305C41.2365 46.8908 41.6015 46.5665 41.8072 46.0019C42.187 44.964 42.0553 43.9536 41.6717 42.9054C41.1142 43.0913 40.7587 43.4704 40.5028 43.9489C40.1545 44.6122 40.1119 45.3294 40.1843 46.0626Z" fill="#F2AD12"/>
<path d="M41.4214 50.9448C41.5047 50.7751 41.63 50.6295 41.7858 50.5214C41.9415 50.4133 42.1227 50.3461 42.3124 50.3262C42.5988 50.2595 42.8493 50.09 43.0158 49.8503C43.8104 48.7317 43.9322 47.4943 43.5827 46.1783C41.986 46.5046 40.9263 48.3178 41.4491 49.8576C41.586 50.2601 41.6276 50.5971 41.4245 50.9605L41.4214 50.9448Z" fill="#F2AD12"/>
<path d="M41.7918 53.8749C42.616 54.1022 43.3244 53.8593 43.8851 53.1725C44.5347 52.3746 44.7751 51.4637 44.7466 50.4098C43.7632 50.4019 43.0129 50.7845 42.3696 51.4766C41.695 52.2019 41.6284 53.0557 41.7918 53.8749Z" fill="#F2AD12"/>
<path d="M7.125 29.6191C8.12596 29.9593 9.08818 30.1076 10.0758 29.8544C10.2831 29.8013 10.5229 29.7545 10.6716 29.6221C10.8572 29.4656 10.9843 29.2516 11.0326 29.014C11.0461 28.8985 10.7784 28.6939 10.6005 28.6169C9.32598 28.0707 7.77285 28.5055 7.125 29.6191Z" fill="#F2AD12"/>
</g>
<defs>
<clipPath id="clip0_247_509">
<rect width="78.5952" height="40.9488" fill="white" transform="matrix(-0.955865 0.293808 -0.293435 -0.955979 117.656 39.8691)"/>
</clipPath>
<clipPath id="clip1_247_509">
<rect width="46.2048" height="23.835" fill="white" transform="matrix(0.905286 0.424802 0.424319 -0.905513 0.734375 43.2559)"/>
</clipPath>
</defs>
</svg>
