<svg width="21" height="20" viewBox="0 0 21 20" fill="none" xmlns="http://www.w3.org/2000/svg">
<g id="Clip path group">
<mask id="mask0_247_598" style="mask-type:luminance" maskUnits="userSpaceOnUse" x="0" y="0" width="21" height="20">
<g id="clip0">
<path id="Vector" d="M20.7596 0H0.773438V20H20.7596V0Z" fill="white"/>
</g>
</mask>
<g mask="url(#mask0_247_598)">
<g id="Group">
<path id="Vector_2" d="M10.7664 19.9997C16.2854 19.9997 20.7594 15.5226 20.7594 9.99992C20.7594 4.4771 16.2854 0 10.7664 0C5.24743 0 0.773438 4.4771 0.773438 9.99992C0.773438 15.5226 5.24743 19.9997 10.7664 19.9997Z" fill="#41B4E6"/>
<path id="Vector_3" d="M20.7635 9.99971C20.7635 9.75605 20.7543 9.51461 20.7372 9.27527L16.5956 5.13086L4.94531 9.71676L9.4028 14.1774L9.46128 14.388L14.3921 19.3223C18.1208 17.8707 20.7635 14.2442 20.7635 9.99971Z" fill="#0091C8"/>
<path id="Vector_4" d="M9.80002 11.4566L14.3161 14.8686L16.5957 5.13086L4.94531 9.71676L8.49039 10.8918L14.9603 6.54898L9.80002 11.4566Z" fill="white"/>
<path id="Vector_5" d="M8.48438 10.8916L9.4553 14.3879L9.79402 11.4565L14.9542 6.54883L8.48438 10.8916Z" fill="#D2D2D7"/>
<path id="Vector_6" d="M11.2595 12.564L9.45312 14.3865L9.79184 11.4551L11.2595 12.564Z" fill="#B9B9BE"/>
</g>
</g>
</g>
</svg>
