<svg width="21" height="20" viewBox="0 0 21 20" fill="none" xmlns="http://www.w3.org/2000/svg">
<g id="whatsapp.svg" clip-path="url(#clip0_247_595)">
<path id="Vector" d="M10.7447 0H10.7397C5.22594 0 0.742188 4.485 0.742188 10C0.742188 12.1875 1.44719 14.215 2.64594 15.8613L1.39969 19.5763L5.24344 18.3475C6.82469 19.395 8.71094 20 10.7447 20C16.2584 20 20.7422 15.5137 20.7422 10C20.7422 4.48625 16.2584 0 10.7447 0Z" fill="#4CAF50"/>
<path id="Vector_2" d="M16.561 14.1217C16.3197 14.803 15.3622 15.368 14.5985 15.533C14.076 15.6442 13.3935 15.733 11.096 14.7805C8.15719 13.563 6.26469 10.5767 6.11719 10.383C5.97594 10.1892 4.92969 8.80172 4.92969 7.36672C4.92969 5.93172 5.65844 5.23297 5.95219 4.93297C6.19344 4.68672 6.59219 4.57422 6.97469 4.57422C7.09844 4.57422 7.20969 4.58047 7.30969 4.58547C7.60344 4.59797 7.75094 4.61547 7.94469 5.07922C8.18594 5.66047 8.77344 7.09547 8.84344 7.24297C8.91469 7.39047 8.98594 7.59047 8.88594 7.78422C8.79219 7.98422 8.70969 8.07297 8.56219 8.24297C8.41469 8.41297 8.27469 8.54297 8.12719 8.72547C7.99219 8.88422 7.83969 9.05422 8.00969 9.34797C8.17969 9.63547 8.76719 10.5942 9.63219 11.3642C10.7485 12.358 11.6535 12.6755 11.9772 12.8105C12.2185 12.9105 12.506 12.8867 12.6822 12.6992C12.906 12.458 13.1822 12.058 13.4635 11.6642C13.6635 11.3817 13.916 11.3467 14.181 11.4467C14.451 11.5405 15.8797 12.2467 16.1735 12.393C16.4672 12.5405 16.661 12.6105 16.7322 12.7342C16.8022 12.858 16.8022 13.4392 16.561 14.1217Z" fill="#FAFAFA"/>
</g>
<defs>
<clipPath id="clip0_247_595">
<rect width="20" height="20" fill="white" transform="translate(0.742188)"/>
</clipPath>
</defs>
</svg>
